<svg xmlns="http://www.w3.org/2000/svg" width="74.031" height="59.576" viewBox="11 14.99 74.031 59.576"><g data-name="Group 280"><g data-name="Path 222"><path d="M30.38 1 8.002 49.005h44.554L30.38 1Z" fill-rule="evenodd" fill="url(&quot;#a&quot;)" transform="translate(18.436 13.99)"/><path d="M48.816 14.99 26.439 62.996h44.553L48.816 14.99Z" stroke-linejoin="round" stroke-linecap="round" stroke="rgba(0,0,0,0 )" fill="transparent"/></g><path d="M77.756 74.566h-58.88a.408.408 0 0 1-.4-.341l-7.47-45.26a.407.407 0 0 1 .57-.438l36.265 16.43c.108.048.23.048.337 0l36.276-16.434a.408.408 0 0 1 .572.431L78.16 74.221a.408.408 0 0 1-.403.345Z" stroke-linejoin="round" stroke-linecap="round" stroke-width="2" stroke="#fff" fill="transparent" data-name="Path 223"/></g><defs><linearGradient x1=".5" y1="0" x2=".5" y2="1" id="a"><stop stop-color="#2f64af" offset="0"/><stop stop-color="rgba(47,100,175,0 )" offset="1"/></linearGradient></defs></svg>