<svg xmlns="http://www.w3.org/2000/svg" width="85.351" height="74.389" viewBox="3.147 10.294 85.351 74.389"><g data-name="Group 284"><g data-name="Path 230"><path d="M43.488 74.92 7.005 38.435c-8.673-8.672-8.673-22.731 0-31.401 8.672-8.673 22.731-8.673 31.404 0l36.48 36.483-31.401 31.401Z" fill-rule="evenodd" fill="url(&quot;#a&quot;)" transform="translate(2.647 9.764)"/><path d="M46.135 84.683 9.652 48.2C.98 39.527.98 25.468 9.652 16.798c8.673-8.673 22.732-8.673 31.404 0l36.48 36.483-31.4 31.402Z" stroke-linejoin="round" stroke-linecap="round" stroke="rgba(0,0,0,0 )" fill="transparent"/></g><path d="m48.026 23.852 4.782-4.782c8.165-8.165 21.401-8.165 29.566 0 8.166 8.163 8.166 21.4 0 29.565L48.026 82.983c-16.328-16.328-16.328-42.803 0-59.131Z" stroke-linejoin="round" stroke-linecap="round" stroke-width="2" stroke="#fff" fill="transparent" data-name="Path 231"/></g><defs><linearGradient x1=".123" y1=".075" x2=".803" y2=".778" id="a"><stop stop-color="#2f64af" offset="0"/><stop stop-color="rgba(47,100,175,0 )" offset="1"/></linearGradient></defs></svg>