<svg xmlns="http://www.w3.org/2000/svg" width="150.232" height="61.544" viewBox="808.309 490.895 150.232 61.544"><g data-name="Group 134639"><path d="M930.214 518.685v-17.413c0-.233 0-.467.02-.698.02-.217.1-.312.311-.339.357-.045.716-.092 1.075-.093 4.046-.006 8.092-.01 12.138 0 .909.003 1.823.02 2.727.11 1.314.13 2.581.477 3.78 1.04 3.566 1.672 5.884 4.415 6.973 8.195a11.23 11.23 0 0 1 .448 3.262 12.051 12.051 0 0 1-1.406 5.552c-1.087 2.055-2.654 3.657-4.621 4.875-.754.468-.748.405-.289 1.2 1.707 2.952 3.406 5.909 5.11 8.863.612 1.064 1.232 2.125 1.846 3.189.074.128.141.26.198.396.054.126-.026.26-.169.28a3.766 3.766 0 0 1-.505.034c-2.563.002-5.127.001-7.69.001-.063 0-.127-.005-.19 0-.356.026-.597-.119-.767-.442-.297-.561-.623-1.107-.938-1.659-1.166-2.041-2.335-4.08-3.498-6.124-.597-1.05-1.184-2.104-1.776-3.156-.073-.13-.15-.256-.227-.383a.568.568 0 0 0-.528-.29c-1.016.002-2.033-.005-3.05.005-.315.004-.393.102-.414.438-.01.169-.004.339-.004.508v10.168c0 .212-.007.424-.034.633a.31.31 0 0 1-.295.286 5.389 5.389 0 0 1-.507.023c-2.288.002-4.576.002-6.863 0-.19 0-.382-.01-.57-.035a.285.285 0 0 1-.25-.253 3.697 3.697 0 0 1-.033-.506c-.003-.826-.002-1.652-.002-2.478v-15.189m8.579-5.817c0 1.313-.003 2.626 0 3.94.003.686.024.708.721.709 1.842.002 3.685-.008 5.527.002 1.164.006 2.088-.48 2.826-1.344 1.31-1.533 1.505-3.293.867-5.128-.715-2.057-2.618-3.066-4.593-2.822-.377.047-.76.056-1.14.056-1.166 0-2.33-.02-3.495-.02-.674 0-.71.041-.712.731-.004 1.292-.001 2.584-.001 3.876" fill="#fff" fill-rule="evenodd" data-name="Path 111651"/><path d="M808.309 518.655v-17.477c0-.953 0-.955.942-.955h21.036c.958 0 .96.002.96.937.002 2.098.002 4.195 0 6.292 0 .847-.01.857-.846.857-4.195.002-8.39.001-12.584.002-.211 0-.424 0-.634.017-.173.015-.262.112-.28.29a4.401 4.401 0 0 0-.016.444c0 1.504-.003 3.008 0 4.512.002.74.007.745.745.746l12.837.001c.233 0 .467.001.698.02.205.018.297.117.32.326.017.147.02.296.02.444.001 2.16.002 4.321 0 6.482-.001.8-.025.826-.817.827-4.237.003-8.474.002-12.71.002-.213 0-.425-.005-.636.007-.328.018-.417.105-.442.415-.01.126-.008.254-.008.381v4.957c.012.607.04.643.656.647 1.123.008 2.246.005 3.368.005h9.47c.212.001.424-.005.635.01.363.023.45.11.477.455.01.126.008.254.008.381v6.61c0 .148.001.297-.013.444-.026.27-.122.365-.406.391-.189.017-.38.014-.571.014h-21.227c-.962 0-.965-.002-.965-.943v-17.54h-.017Z" fill="#fff" fill-rule="evenodd" data-name="Path 111652"/><path d="M188.587 55.567c.147-.534.235-1.096.32-1.663.114-.774.004-1.52-.145-2.267-.307-1.526-1.023-2.864-1.95-4.097a17.083 17.083 0 0 0-1.571-1.83c-2.47-2.471-4.941-4.944-7.41-7.417-1.408-1.409-2.835-2.798-4.21-4.238-.922-.964-1.869-1.906-2.77-2.888-1.547-1.684-3.049-3.407-4.404-5.254-1.882-2.565-3.392-5.321-4.348-8.361-.477-1.517-.82-3.065-.964-4.657-.061-.677-.118-1.351-.091-2.028.075-1.936.391-3.825 1.083-5.65.698-1.843 1.703-3.497 2.953-5.011.066-.08.153-.143.238-.204.015-.011.095.026.096.043a.843.843 0 0 1-.017.247c-.403 1.617-.112 3.152.548 4.64.554 1.248 1.31 2.372 2.17 3.427a34.987 34.987 0 0 0 2.34 2.591c1.465 1.47 2.952 2.92 4.386 4.42 3.571 3.737 7.293 7.325 10.9 11.025.96.985 1.838 2.047 2.65 3.161a30.02 30.02 0 0 1 2.327 3.71 23.014 23.014 0 0 1 2.348 6.887c.157.92.266 1.84.273 2.777.008 1.251-.033 2.496-.257 3.732-.376 2.083-1.063 4.053-2.115 5.891-.484.845-.979 1.686-1.589 2.45-.185.232-.384.452-.577.676-.042.048-.095.098-.162.068-.068-.029-.06-.1-.052-.18" fill-rule="evenodd" fill="url(&quot;#a&quot;)" transform="translate(724.967 490.895)" data-name="Path 111653"/><path d="m837.566 518.659.001-17.344c0-.254.004-.51.03-.761.021-.21.124-.3.33-.32.146-.016.295-.015.443-.015 2.309-.001 4.617-.003 6.925 0 .798 0 .824.024.824.816.003 3.939.001 7.878.001 11.817v14.93c0 .19-.005.382.004.572.018.378.085.452.444.47.254.014.508.01.763.01h10.8c.211 0 .424-.004.635.011.321.024.415.117.442.422.013.147.01.296.01.444.001 2.182.002 4.363 0 6.544 0 .19-.01.381-.028.57-.014.14-.111.227-.244.26a1.588 1.588 0 0 1-.313.039c-.17.007-.34.005-.509.005l-19.44-.001c-.254 0-.508-.009-.76-.031-.192-.017-.31-.144-.327-.333a8.897 8.897 0 0 1-.03-.76v-17.345" fill="#fff" fill-rule="evenodd" data-name="Path 111654"/><path d="M873.952 518.726v17.222c0 .212.005.423-.005.635-.02.436-.105.524-.52.551-.105.007-.211.005-.317.005h-6.8c-.168 0-.339-.005-.507-.02-.19-.02-.308-.132-.342-.32a2.229 2.229 0 0 1-.034-.316c-.006-.19-.004-.38-.004-.571l.001-34.443c0-.296.005-.594.038-.888.027-.242.13-.322.377-.347.126-.013.253-.013.38-.013h6.99c.128.001.255.001.38.016.23.028.327.127.347.379.02.231.016.465.016.698v17.412" fill="#fff" fill-rule="evenodd" data-name="Path 111655"/><g data-name="Union 28"><path d="M1.033 43.65c-.077-.221-.156-.44-.22-.664A19.516 19.516 0 0 1 .3 40.628 24.1 24.1 0 0 1 0 37.138c.06-2.57.471-5.085 1.45-7.49a18.88 18.88 0 0 1 2.799-4.745c1.55-1.93 3.39-3.548 5.446-4.921.018-.012.035-.025.053-.035.518-.334.538-.33.907.17a57.471 57.471 0 0 0 3.068 3.808c1.617 1.852 3.348 3.594 5.082 5.334.224.224.453.446.626.715.107.165.085.284-.076.367-.133.069-.27.127-.407.18-2.494 1.01-4.99 2.013-7.483 3.021-1.178.476-2.358.947-3.529 1.443-.8.34-1.576.725-2.3 1.216a10.518 10.518 0 0 0-2.777 2.757c-.748 1.084-1.186 2.288-1.433 3.57-.066.353-.1.712-.155 1.068-.01.053-.051.12-.097.142a.082.082 0 0 1-.034.008c-.05 0-.09-.048-.107-.097ZM34.08 23.1c-.416-.536-.817-1.08-1.245-1.606-.479-.591-.968-1.176-1.506-1.715-1.615-1.618-3.233-3.235-4.84-4.86-.476-.481-.925-.989-1.38-1.488-.151-.165-.12-.306.088-.397.387-.17.781-.328 1.173-.486 3.082-1.241 6.17-2.47 9.244-3.73 1.316-.539 2.545-1.235 3.64-2.166 1.943-1.65 3.08-3.732 3.455-6.244.021-.152-.042-.406.177-.409.178-.002.198.249.243.406a26.04 26.04 0 0 1 .738 3.41c.138.905.126 1.814.136 3.006.068 1.1-.112 2.462-.386 3.814-.23 1.146-.606 2.245-1.042 3.327-.615 1.523-1.476 2.904-2.465 4.205-.952 1.251-2.054 2.36-3.247 3.382a25.478 25.478 0 0 1-1.9 1.483c-.087.06-.169.127-.257.185-.137.09-.228.137-.307.137-.103 0-.185-.08-.32-.254Z" fill-rule="evenodd" fill="url(&quot;#b&quot;)" transform="translate(880.024 496.993)"/><path d="M881.056 540.643c-.076-.22-.155-.44-.219-.663a19.516 19.516 0 0 1-.514-2.358 24.1 24.1 0 0 1-.3-3.49c.061-2.57.472-5.086 1.45-7.49a18.88 18.88 0 0 1 2.8-4.745c1.55-1.93 3.39-3.549 5.446-4.922.018-.011.035-.025.053-.035.518-.334.538-.33.907.17a57.471 57.471 0 0 0 3.068 3.808c1.616 1.852 3.348 3.594 5.081 5.334.224.224.453.446.627.715.106.165.085.284-.077.368-.132.068-.269.126-.406.18-2.495 1.009-4.99 2.012-7.483 3.021-1.178.476-2.359.947-3.529 1.443-.8.339-1.576.725-2.3 1.216a10.518 10.518 0 0 0-2.777 2.757c-.748 1.084-1.186 2.288-1.433 3.57-.066.353-.1.712-.155 1.067-.01.054-.052.12-.097.142a.082.082 0 0 1-.035.009c-.048 0-.09-.048-.107-.097Zm33.048-20.548c-.416-.536-.816-1.08-1.244-1.607-.48-.59-.968-1.175-1.506-1.715-1.615-1.618-3.233-3.235-4.84-4.86-.476-.48-.926-.988-1.38-1.487-.151-.166-.121-.306.088-.398.387-.17.781-.327 1.173-.486 3.082-1.24 6.17-2.47 9.244-3.73 1.316-.538 2.545-1.235 3.64-2.165 1.943-1.65 3.08-3.733 3.454-6.244.022-.152-.041-.406.177-.41.179-.001.2.25.244.406a26.04 26.04 0 0 1 .738 3.41c.137.906.125 1.814.136 3.007.068 1.1-.112 2.461-.386 3.814-.23 1.146-.606 2.244-1.042 3.327-.615 1.523-1.477 2.904-2.465 4.205-.952 1.25-2.054 2.36-3.247 3.381a25.478 25.478 0 0 1-1.9 1.483c-.087.06-.169.127-.258.186-.136.089-.228.136-.306.136-.103 0-.185-.08-.32-.253Z" stroke-linejoin="round" stroke-linecap="round" stroke="rgba(0,0,0,0 )" fill="transparent"/></g><path d="M853.164 548.098c0-1.143-.004-2.287.002-3.431.003-.69.036-.724.715-.726 1.186-.004 2.375-.041 3.558.02 1.548.08 2.73.82 3.502 2.183.18.317.285.66.354 1.015.126.652.143 1.309.001 1.956-.312 1.42-1.208 2.347-2.532 2.877a4.13 4.13 0 0 1-1.55.3c-1.123-.004-2.246 0-3.369 0-.126 0-.254-.007-.38-.023-.168-.022-.264-.13-.278-.296a7.034 7.034 0 0 1-.022-.57c-.003-1.102-.001-2.203-.001-3.305Zm1.705.032v1.837c0 .148-.002.296.01.443.026.31.116.413.438.417.675.009 1.357.046 2.025-.025 1.05-.112 1.796-.679 2.174-1.689.136-.363.162-.74.149-1.122-.048-1.39-1.022-2.45-2.407-2.558-.65-.051-1.308-.026-1.962-.016-.315.005-.395.104-.419.433-.01.147-.007.295-.007.443v1.837" fill="#fff" fill-rule="evenodd" data-name="Path 111658"/><path d="M883.363 543.945c.547-.03 1.09.043 1.61.248 1.55.612 2.488 1.733 2.722 3.385.423 2.979-1.928 4.845-4.204 4.847-.867 0-1.69-.12-2.453-.535-1.403-.764-2.123-1.952-2.188-3.547-.04-.966.189-1.85.766-2.63.818-1.106 1.912-1.707 3.292-1.767.148-.006.297 0 .455 0m2.656 4.253c-.015-.21-.024-.422-.047-.632a1.372 1.372 0 0 0-.073-.307c-.531-1.48-1.912-2.064-3.244-1.77-1.49.33-2.47 1.75-1.994 3.535.367 1.373 1.724 2.215 3.357 1.84 1.08-.249 2.053-1.218 2.001-2.666" fill="#fff" fill-rule="evenodd" data-name="Path 111659"/><path d="M845.242 546.881v2.097a3.72 3.72 0 0 1-.145 1.066c-.307 1.045-.954 1.776-1.99 2.144-.887.315-1.792.313-2.692.106-1.503-.347-2.346-1.49-2.485-3.003-.02-.21-.016-.424-.016-.635v-3.813c0-.084-.002-.169 0-.254.018-.594.06-.636.668-.65.169-.003.339-.005.508.004.423.02.5.097.524.54.013.254.005.509.006.763v3.43c0 .363.03.719.142 1.066.175.545.528.901 1.074 1.078.328.106.662.14 1.003.113.91-.07 1.535-.642 1.665-1.548a6.94 6.94 0 0 0 .048-.951c.005-1.186 0-2.372.003-3.558.002-.937.02-.951.965-.937.686.01.719.037.725.719.006.74.001 1.482.001 2.223h-.004Z" fill="#fff" fill-rule="evenodd" data-name="Path 111660"/><path d="M898.925 552.406c-.84.057-1.576-.124-2.295-.394a2.651 2.651 0 0 1-.824-.469c-.105-.092-.145-.21-.1-.343.047-.14.107-.276.167-.412.282-.625.326-.648.92-.318.877.484 1.818.668 2.818.479.234-.045.451-.12.641-.26.446-.33.447-.9.008-1.237-.205-.159-.445-.248-.69-.315-.529-.148-1.064-.279-1.595-.418-.433-.114-.848-.268-1.226-.511-.79-.508-1.126-1.334-.91-2.252.159-.671.526-1.191 1.123-1.548.37-.221.77-.378 1.19-.419.95-.093 1.905-.122 2.825.213.237.087.47.192.692.313.188.103.226.227.171.428-.027.102-.067.2-.105.299-.294.76-.325.743-.986.446-.716-.322-1.475-.349-2.243-.271a1.366 1.366 0 0 0-.647.242c-.518.357-.506 1.032.023 1.371.197.127.418.198.645.257.594.155 1.188.307 1.778.477.262.077.522.177.767.298 1.654.81 1.463 2.81.316 3.683-.538.409-1.161.6-1.827.658-.231.02-.466.003-.636.003" fill="#fff" fill-rule="evenodd" data-name="Path 111661"/><path d="M811.87 543.946a4.689 4.689 0 0 1 2.11.365c.663.278.707.39.435 1.05a3.399 3.399 0 0 1-.16.345c-.091.165-.199.209-.368.154a2.423 2.423 0 0 1-.293-.121c-.711-.34-1.463-.398-2.234-.334-.236.02-.46.077-.666.191-.305.17-.454.428-.447.781.005.335.17.57.46.701.27.12.553.212.838.292.488.138.984.249 1.472.389.264.075.526.168.772.288.993.484 1.403 1.331 1.106 2.548-.143.588-.521 1.007-1.028 1.317a3.3 3.3 0 0 1-1.498.483c-.74.051-1.481.056-2.21-.126-.54-.134-1.053-.326-1.514-.639-.244-.165-.276-.275-.179-.536.03-.079.068-.155.104-.232.347-.752.331-.72.996-.368.868.46 1.79.617 2.765.458.236-.039.453-.109.64-.255.448-.351.425-.975-.051-1.288-.25-.164-.532-.256-.821-.331a77.774 77.774 0 0 1-1.776-.484 2.988 2.988 0 0 1-.966-.472c-.524-.39-.79-.891-.818-1.566-.052-1.251.758-2.016 1.527-2.338.58-.244 1.185-.306 1.803-.272" fill="#fff" fill-rule="evenodd" data-name="Path 111662"/><path d="M826.478 543.94c.972 0 1.946-.005 2.918.001.58.004.655.086.666.659.013.7-.081.798-.795.806-.508.005-1.016-.005-1.523.009-.331.009-.41.095-.432.415-.011.168-.007.338-.007.507 0 1.692.001 3.384-.001 5.076-.002.874-.014.884-.885.881-.797-.002-.82-.02-.822-.814-.004-1.755 0-3.51-.002-5.266-.001-.803-.004-.803-.814-.807-.466-.003-.931.007-1.396-.009-.412-.013-.507-.12-.542-.538a2.261 2.261 0 0 1-.006-.19c-.002-.734.147-.732.722-.731h2.919" fill="#fff" fill-rule="evenodd" data-name="Path 111663"/><path d="M869.232 548.029c0-1.102-.005-2.203.001-3.304.005-.746.047-.781.798-.787h.254c.656.011.714.06.715.74.006 2.287.003 4.574.002 6.862 0 .105 0 .212-.013.317-.037.32-.122.416-.435.428-.317.012-.635.008-.952-.007-.207-.01-.308-.106-.337-.312a4.24 4.24 0 0 1-.032-.57c-.003-1.122-.002-2.245-.001-3.367" fill="#fff" fill-rule="evenodd" data-name="Path 111664"/></g><defs><linearGradient x1=".115" y1="0" x2=".5" y2="1" id="a"><stop stop-color="#02aac7" offset="0"/><stop stop-color="#1293bf" offset="1"/></linearGradient><linearGradient x1=".962" y1=".039" x2=".033" y2=".9" id="b"><stop stop-color="#00afc9" offset="0"/><stop stop-color="#3063ae" offset="1"/></linearGradient></defs></svg>