<svg xmlns="http://www.w3.org/2000/svg" width="75" height="54" viewBox="1.869 12.645 74.626 53.957"><g data-name="Group 134850"><g data-name="Group 96781"><g data-name="Group 96780"><g data-name="Path 4246"><path d="M28.848 66.601 1.869 39.623l26.979-26.978 26.978 26.978L28.848 66.6Z" fill="rgba(0,0,0,0 )" fill-rule="evenodd"/><path d="M28.848 66.601 1.869 39.623l26.979-26.978 26.978 26.978L28.848 66.6Z" stroke-linejoin="round" stroke-linecap="round" stroke-width="2" stroke="#fff" fill="transparent"/></g></g></g><g data-name="Group 96783"><g data-name="Group 96782"><g data-name="Path 4247"><path d="M48.692 66.601 21.714 39.623l26.978-26.978L75.67 39.623 48.692 66.6Z" fill="rgba(0,0,0,0 )" fill-rule="evenodd"/><path d="M48.692 66.601 21.714 39.623l26.978-26.978L75.67 39.623 48.692 66.6Z" stroke-linejoin="round" stroke-linecap="round" stroke-width="2" stroke="#fff" fill="transparent"/></g></g></g><g data-name="Group 96786"><g data-name="Group 96784"><g data-name="Path 4248"><path d="m62.983 52.31 12.688-12.688" fill="rgba(0,0,0,0 )" fill-rule="evenodd"/><path d="m62.983 52.31 12.688-12.688" stroke-linejoin="round" stroke-linecap="round" stroke-width="2.4" stroke="#45ffde" fill="transparent"/></g></g></g><g data-name="Group 96789"><g data-name="Group 96788"><g data-name="Path 4251"><path d="M76.495 40.358 48.693 12.645 21.714 39.623l18.352 18.351" fill="rgba(0,0,0,0 )" fill-rule="evenodd"/><path d="M76.495 40.358 48.693 12.645 21.714 39.623l18.352 18.351" stroke-linejoin="round" stroke-linecap="round" stroke-width="2.4" stroke="#45b1ff" fill="transparent"/></g></g></g></g></svg>