<svg xmlns="http://www.w3.org/2000/svg" width="71.018" height="71.017" viewBox="209.492 5578.595 71.018 71.017"><g data-name="Group 96757"><g data-name="Group 96758"><g data-name="Group 96757"><g data-name="Path 4234"><path d="M209.492 5614.104c0-19.611 15.898-35.509 35.509-35.509 19.61 0 35.508 15.898 35.508 35.509 0 19.61-15.897 35.508-35.508 35.508-19.611 0-35.509-15.897-35.509-35.508Z" fill="rgba(0,0,0,0 )" fill-rule="evenodd"/><path d="M209.492 5614.104c0-19.611 15.898-35.509 35.509-35.509 19.61 0 35.508 15.898 35.508 35.509 0 19.61-15.897 35.508-35.508 35.508-19.611 0-35.509-15.897-35.509-35.508Z" stroke-linejoin="round" stroke-linecap="round" stroke-width="2" stroke="#fff" fill="transparent"/></g></g></g><g data-name="Group 96760"><g data-name="Group 96759"><g data-name="Path 4235"><path d="M222.719 5614.103c0-12.306 9.976-22.282 22.282-22.282s22.283 9.976 22.283 22.282-9.977 22.283-22.283 22.283c-12.306 0-22.282-9.977-22.282-22.283Z" fill="rgba(0,0,0,0 )" fill-rule="evenodd"/><path d="M222.719 5614.103c0-12.306 9.976-22.282 22.282-22.282s22.283 9.976 22.283 22.282-9.977 22.283-22.283 22.283c-12.306 0-22.282-9.977-22.282-22.283Z" stroke-linejoin="round" stroke-linecap="round" stroke-width="2" stroke="#fff" fill="transparent"/></g></g></g><g data-name="Group 96764"><g data-name="Group 96763"><g data-name="Path 4237"><path d="M236.947 5614.005a8.053 8.053 0 1 1 16.106 0 8.053 8.053 0 0 1-16.106 0Z" fill="rgba(0,0,0,0 )" fill-rule="evenodd"/><path d="M236.947 5614.005a8.053 8.053 0 1 1 16.106 0 8.053 8.053 0 0 1-16.106 0Z" stroke-linejoin="round" stroke-linecap="round" stroke-width="1.2" stroke="#ccc" fill="transparent"/></g></g></g><g data-name="Group 96767"><g data-name="Group 96765"><g data-name="Path 4238"><path d="M267.42 5614.005h13.09" fill="rgba(0,0,0,0 )" fill-rule="evenodd"/><path d="M267.42 5614.005h13.09" stroke-linejoin="round" stroke-linecap="round" stroke-width="2" stroke="#fff" fill="transparent"/></g></g><g data-name="Group 96766"><g data-name="Path 4239"><path d="M223.068 5614.005h-13.576" fill="rgba(0,0,0,0 )" fill-rule="evenodd"/><path d="M223.068 5614.005h-13.576" stroke-linejoin="round" stroke-linecap="round" stroke-width="2" stroke="#fff" fill="transparent"/></g></g></g><g data-name="Group 96769"><g data-name="Group 96768"><g data-name="Path 4240"><path d="M222.719 5614.105c0-11.92 9.436-21.635 21.246-22.084" fill="rgba(0,0,0,0 )" fill-rule="evenodd"/><path d="M222.719 5614.105c0-11.92 9.436-21.635 21.246-22.084" stroke-linejoin="round" stroke-linecap="round" stroke-width="2.4" stroke="#45ffde" fill="transparent"/></g></g></g><g data-name="Group 96772"><g data-name="Group 96770"><g data-name="Path 4241"><path d="M244.275 5606.035v-26.67" fill="rgba(0,0,0,0 )" fill-rule="evenodd"/><path d="M244.275 5606.035v-26.67" stroke-linejoin="round" stroke-linecap="round" stroke-width="2.4" stroke="#45b1ff" fill="transparent"/></g></g><g data-name="Group 96771"><g data-name="Path 4242"><path d="M244.43 5605.95a8.053 8.053 0 1 1-3.286 15.13v.001a8.053 8.053 0 0 1 3.287-15.13" fill="rgba(0,0,0,0 )" fill-rule="evenodd"/><path d="M244.43 5605.95a8.053 8.053 0 1 1-3.286 15.13v.001a8.053 8.053 0 0 1 3.287-15.13" stroke-linejoin="round" stroke-linecap="round" stroke-width="2.4" stroke="#45b1ff" fill="transparent"/></g></g></g></g></svg>