<svg xmlns="http://www.w3.org/2000/svg" width="80.355" height="81.186" viewBox="645.823 5350.303 59.355 81.186"><g data-name="Group 96791"><g data-name="Group 96781"><g data-name="Group 96780"><g data-name="Path 4246"><path d="m705.178 5401.811-29.678 29.678-29.678-29.678 29.678-29.678 29.678 29.678Z" fill="rgba(0,0,0,0 )" fill-rule="evenodd"/><path d="m705.178 5401.811-29.678 29.678-29.678-29.678 29.678-29.678 29.678 29.678Z" stroke-linejoin="round" stroke-linecap="round" stroke-width="2" stroke="#fff" fill="transparent"/></g></g></g><g data-name="Group 96783"><g data-name="Group 96782"><g data-name="Path 4247"><path d="M705.178 5379.98 675.5 5409.66l-29.678-29.678 29.678-29.678 29.678 29.678Z" fill="rgba(0,0,0,0 )" fill-rule="evenodd"/><path d="M705.178 5379.98 675.5 5409.66l-29.678-29.678 29.678-29.678 29.678 29.678Z" stroke-linejoin="round" stroke-linecap="round" stroke-width="2" stroke="#fff" fill="transparent"/></g></g></g><g data-name="Group 96786"><g data-name="Group 96784"><g data-name="Path 4248"><path d="m689.457 5364.26-13.957-13.957" fill="rgba(0,0,0,0 )" fill-rule="evenodd"/><path d="m689.457 5364.26-13.957-13.957" stroke-linejoin="round" stroke-linecap="round" stroke-width="2.4" stroke="#45ffde" fill="transparent"/></g></g></g><g data-name="Group 96789"><g data-name="Group 96788"><g data-name="Path 4251"><path d="m675.5 5350.303-29.678 29.677 29.678 29.678 20.188-20.188" fill="rgba(0,0,0,0 )" fill-rule="evenodd"/><path d="m675.5 5350.303-29.678 29.677 29.678 29.678 20.188-20.188" stroke-linejoin="round" stroke-linecap="round" stroke-width="2.4" stroke="#45b1ff" fill="transparent"/></g></g></g></g></svg>