<svg xmlns="http://www.w3.org/2000/svg" width="65.332" height="65.332" viewBox="212.334 5579.668 65.332 65.332"><g data-name="Group 96792"><g data-name="Group 96793"><g data-name="Group 96792"><g data-name="Path 4252"><path d="M277.666 5645H214.1l63.566-63.566V5645Z" fill="rgba(0,0,0,0 )" fill-rule="evenodd"/><path d="M277.666 5645H214.1l63.566-63.566V5645Z" stroke-linejoin="round" stroke-linecap="round" stroke-width="2" stroke="#fff" fill="transparent"/></g></g></g><g data-name="Group 96795"><g data-name="Group 96794"><g data-name="Path 4253"><path d="M277.665 5612.334c0 18.041-14.625 32.666-32.665 32.666-18.041 0-32.666-14.625-32.666-32.666 0-18.041 14.625-32.666 32.666-32.666 18.04 0 32.665 14.625 32.665 32.666Z" fill="rgba(0,0,0,0 )" fill-rule="evenodd"/><path d="M277.665 5612.334c0 18.041-14.625 32.666-32.665 32.666-18.041 0-32.666-14.625-32.666-32.666 0-18.041 14.625-32.666 32.666-32.666 18.04 0 32.665 14.625 32.665 32.666Z" stroke-linejoin="round" stroke-linecap="round" stroke-width="2" stroke="#fff" fill="transparent"/></g></g></g><g data-name="Group 96797"><g data-name="Group 96796"><g data-name="Path 4254"><path d="M256.628 5620.929c0 11.198-9.078 20.276-20.276 20.276s-20.276-9.078-20.276-20.276 9.078-20.276 20.276-20.276 20.276 9.078 20.276 20.276Z" fill="rgba(0,0,0,0 )" fill-rule="evenodd"/><path d="M256.628 5620.929c0 11.198-9.078 20.276-20.276 20.276s-20.276-9.078-20.276-20.276 9.078-20.276 20.276-20.276 20.276 9.078 20.276 20.276Z" stroke-linejoin="round" stroke-linecap="round" stroke-width="2" stroke="#fff" fill="transparent"/></g></g></g><g data-name="Group 96801"><g data-name="Group 96799"><g data-name="Path 4256"><path d="M252.869 5609.166a20.183 20.183 0 0 1 3.76 11.763c0 11.198-9.079 20.276-20.277 20.276s-20.276-9.078-20.276-20.276c0-.492.018-.98.052-1.464" fill="rgba(0,0,0,0 )" fill-rule="evenodd"/><path d="M252.869 5609.166a20.183 20.183 0 0 1 3.76 11.763s0 0 0 0c0 11.198-9.079 20.276-20.277 20.276s-20.276-9.078-20.276-20.276c0-.492.018-.98.052-1.464" stroke-linejoin="round" stroke-linecap="round" stroke-width="2.4" stroke="#11ffc4" fill="transparent"/></g></g><g data-name="Group 96800"><g data-name="Path 4257"><path d="m222.626 5636.475 26.073-26.073" fill="rgba(0,0,0,0 )" fill-rule="evenodd"/><path d="m222.626 5636.475 26.073-26.073" stroke-linejoin="round" stroke-linecap="round" stroke-width="2.4" stroke="#45b1ff" fill="transparent"/></g></g></g></g></svg>