<svg xmlns="http://www.w3.org/2000/svg" width="71.013" height="72.327" viewBox="-17964.506 -6285.858 55.013 72.327"><g data-name="Group 96802"><g data-name="Group 96803"><g data-name="Group 96802"><g data-name="Path 4258"><path d="M-17909.493-6241.036c0 15.191-12.316 27.506-27.507 27.506s-27.506-12.315-27.506-27.506c0-15.192 12.315-27.506 27.506-27.506s27.507 12.314 27.507 27.506Z" fill="rgba(0,0,0,0 )" fill-rule="evenodd"/><path d="M-17909.493-6241.036c0 15.191-12.316 27.506-27.507 27.506s-27.506-12.315-27.506-27.506c0-15.192 12.315-27.506 27.506-27.506s27.507 12.314 27.507 27.506Z" stroke-linejoin="round" stroke-linecap="round" stroke-width="2" stroke="#fff" fill="transparent"/></g></g></g><g data-name="Group 96805"><g data-name="Group 96804"><g data-name="Path 4259"><path d="M-17919.759-6268.616c0 9.521-7.719 17.24-17.24 17.24-9.522 0-17.241-7.719-17.241-17.24 0-9.522 7.719-17.24 17.24-17.24 9.522 0 17.241 7.718 17.241 17.24Z" fill="rgba(0,0,0,0 )" fill-rule="evenodd"/><path d="M-17919.759-6268.616c0 9.521-7.719 17.24-17.24 17.24-9.522 0-17.241-7.719-17.241-17.24 0-9.522 7.719-17.24 17.24-17.24 9.522 0 17.241 7.718 17.241 17.24Z" stroke-linejoin="round" stroke-linecap="round" stroke-width="2" stroke="#fff" fill="transparent"/></g></g></g><g data-name="Group 96809"><g data-name="Group 96808"><g data-name="Path 4261"><path d="M-17909.493-6258.351c0 15.191-12.316 27.506-27.507 27.506s-27.506-12.315-27.506-27.506c0-15.192 12.315-27.506 27.506-27.506s27.507 12.314 27.507 27.506Z" fill="rgba(0,0,0,0 )" fill-rule="evenodd"/><path d="M-17909.493-6258.351c0 15.191-12.316 27.506-27.507 27.506s-27.506-12.315-27.506-27.506c0-15.192 12.315-27.506 27.506-27.506s27.507 12.314 27.507 27.506Z" stroke-linejoin="round" stroke-linecap="round" stroke-width="2" stroke="#fff" fill="transparent"/></g></g></g><g data-name="Group 96815"><g data-name="Group 96813"><g data-name="Path 4264"><path d="M-17937-6268.543c15.192 0 27.506 12.315 27.506 27.506s-12.314 27.507-27.505 27.507" fill="rgba(0,0,0,0 )" fill-rule="evenodd"/><path d="M-17937-6268.543c15.192 0 27.506 12.315 27.506 27.506s-12.314 27.507-27.505 27.507" stroke-linejoin="round" stroke-linecap="round" stroke-width="2.4" stroke="#45b1ff" fill="transparent"/></g></g><g data-name="Group 96814"><g data-name="Path 4265"><path d="M-17909.494-6258.351c0-15.191-12.314-27.506-27.506-27.506-9.521 0-17.24 7.719-17.24 17.24 0 9.522 7.719 17.241 17.24 17.241" fill="rgba(0,0,0,0 )" fill-rule="evenodd"/><path d="M-17909.494-6258.351c0-15.191-12.314-27.506-27.506-27.506-9.521 0-17.24 7.719-17.24 17.24 0 9.522 7.719 17.241 17.24 17.241" stroke-linejoin="round" stroke-linecap="round" stroke-width="2.4" stroke="#45ffde" fill="transparent"/></g></g></g></g></svg>